Patient4_TMGait_0pt3_03_right_20_EMG.mot
version=1
nRows=16
nColumns=33
inDegrees=no
endheader
time	1LAddLong	2LGlutMax	3LGlutMed	4LIliopsoas	5LSemiMemb	6LBicFemLong	7LRecFem	8LVastMed	9LVastLat	10LGasMed	11LTibAnt	12lTibPost	13LPeroneusLong	14LSol	15LExtDigLong	16LFlexDigLong	17RAddLong	18RGlutMax	19RGlutMed	20RIliopsoas	21RSemiMemb	22RBicFemLong	23RRecFem	24RVastMed	25RVastLat	26RGasMed	27RTibAnt	28RTibPost	29RPeroneusLong	30RSol	31RExtDigLong	32RFlexDigLong
38.127	0.000916	-0.042572	0.009766	0.009308	0.012207	-0.017853	0.056458	0.005188	0.025482	0.075226	-0.013123	0.001221	0.15945	1.4795	-0.004578	0.056763	0.056458	0.13901	0.099487	0.038605	0.10391	0.042725	-0.025177	0.010529	0.10605	-0.020142	-0.001221	-0.039978	0.75806	0.20783	-0.001373	-0.000458
38.128	-0.006256	-0.000458	-0.016174	0.00824	0.003662	-0.034943	0.074768	0.001373	0.026855	-0.029144	-0.00946	-0.64941	-0.20264	0.5191	0.016022	-0.041046	0.032043	0.21057	0.12772	0.050354	0.045776	0.043793	-0.035706	0.000305	0.10773	0.010529	0.015564	0.099182	0.92667	0.069427	0.001984	-0.010986
38.129	-0.005798	0.030518	-0.003357	-0.005493	0.014343	-0.076752	0.073242	0.000305	0.019073	0.14282	0.005341	0.057526	-0.26566	0.24399	0.011292	-0.40131	0.012665	0.23315	0.14587	-0.023193	0.014191	0.10742	-0.033417	0.003967	0.08194	0.073547	0.025482	0.070496	1.6983	-0.059509	-0.000458	-0.012054
38.13	-0.00946	0.058899	0.005951	0	-0.007324	-0.046539	0.091095	-0.006561	0.018616	0.24277	0.004425	0.30762	-0.040588	0.26413	-0.033875	-0.18967	-0.039063	0.21805	0.22308	-0.032959	-0.26306	0.39581	-0.032196	-0.097961	0.060272	0.095978	-0.034332	-0.037384	1.5594	-0.25085	0.006409	-0.003662
38.131	0.005035	0.021667	0.004272	0.004425	-0.001068	-0.006561	0.10223	0.000305	0.012665	0.28778	-0.004425	0.33844	0.30411	-1.4348	-0.055389	0.1709	-0.067291	0.18936	0.3212	-0.005341	-0.17548	0.29419	-0.03006	-0.051575	0.06546	0.082397	0.000153	-0.021667	-0.62729	-0.17593	-0.000916	0.002441
38.132	0.001678	0.018921	-0.054779	0.000305	0.006104	-0.001373	0.11612	0.001678	0.011292	0.25055	-0.012512	-0.57831	0.071869	-1.2984	-0.020447	0.000153	-0.042114	0.22492	0.050812	0.04303	0.027313	-0.009308	0.06424	-0.071259	0.094299	0.052795	0.066071	-0.004578	-1.0966	-0.057983	-0.00061	0.001526
38.133	-0.002594	0.059357	-0.064697	0.00473	-0.016785	-0.012665	0.11185	0.007019	0.003357	0.11444	-0.008698	0.15091	0.28427	-1.0292	0.051117	0.47958	-0.016785	0.28259	-0.10651	0.009918	-0.12329	-0.21454	0.084534	-0.001068	0.13901	0.014343	0.075226	-0.009918	-1.0179	-0.068665	0.005035	-0.004272
38.134	0.003204	-0.026703	-0.065155	0.010376	-0.00412	-0.01358	0.06073	0.010071	0.000305	0.068512	-0.003357	-0.10086	0.23315	-0.96847	0.016327	0.35767	-0.00412	0.27618	0.070648	-0.018921	-0.18402	-0.26916	0.13077	0.059662	0.10086	-0.015869	0.092926	-0.014954	-0.68558	-0.17822	0.001678	-0.002441
38.135	-0.002594	-0.070038	-0.050201	0.00885	-0.008087	-0.033875	0.021515	0.00885	0.020142	0.003357	-0.005951	-0.28305	0.12222	-0.90424	-0.057068	-0.036011	0.015869	0.29404	0.33112	-0.019684	-0.24826	-0.22018	0.14755	0.070343	0.054626	-0.036011	0.033569	-0.014954	-1.5991	-0.15167	-0.003052	-0.00412
38.136	-0.002594	-0.054169	-0.056458	0.002899	-0.00946	-0.0383	0.04715	0.016327	-0.007019	-0.062866	0.001373	-0.1506	-0.027771	-0.54138	-0.094147	-0.11795	-0.001678	0.34042	0.54352	-0.058594	-0.066833	-0.19012	0.092163	0.08667	-0.077667	-0.060272	0.12604	-0.009766	-1.129	-0.14374	-0.001221	-0.009613
38.137	0.002441	-0.068207	-0.080414	0.005188	0.001984	-0.018311	-0.068512	0.019989	0.007629	-0.11444	-0.000153	-0.12192	0.01297	-0.41504	-0.082245	-0.62347	-0.009613	0.42129	0.62744	-0.11169	0.091705	-0.20401	0.10666	0.11627	-0.38788	-0.020447	-0.050354	-0.004272	0.039368	-0.19455	0.004272	-0.012207
38.138	0.003052	-0.078125	-0.047607	0.00351	-0.002289	-0.026855	-0.13428	0.006104	0.082855	-0.11246	0.005646	-0.062714	-0.051727	-0.19028	-0.035858	0.46677	0.006104	0.37979	0.37964	-0.041351	0.025177	-0.32577	0.047302	0.10162	-0.32196	0.023193	-0.16007	-0.00946	0.93002	-0.17105	-0.008392	-0.01358
38.139	0.008087	-0.098419	-0.094452	0.015717	-0.000305	-0.02533	-0.032043	-0.007172	0.12314	-0.070953	0.012665	-0.19028	-0.15915	-0.094604	-0.025635	0.19226	-0.001221	0.30151	0.54535	0.009766	0.085907	-0.12421	0.10391	0.076141	-0.15976	0.013733	-0.084991	-0.001373	0.43854	-0.098572	-0.000916	-0.016632
38.14	-0.00061	-0.098877	-0.093384	0.010986	-0.007324	-0.030365	0.022736	-0.00351	0.08194	-0.020294	0.008087	-0.33188	-0.16388	0.28305	0.014343	-0.003967	0.019836	0.29816	0.71213	0.062256	-0.061798	-0.10757	0.1738	0.007782	-0.12802	0.063629	0.024414	0.010986	0.88425	-0.19089	0.00061	-0.015259
38.141	-0.00351	-0.090332	-0.085144	0.006866	-0.009003	-0.002136	0.038452	-0.001373	0.06012	0.056458	0.008392	-0.20432	-0.074921	0.3775	0.027161	-0.082245	0.006866	0.31067	0.75531	0.15182	-0.24017	-0.12314	0.17975	-0.044861	-0.13855	0.031891	0.077209	0.005798	0.19012	-0.39902	-0.00412	-0.010376
38.142	-0.010681	-0.069885	-0.03006	0.007324	-0.000916	-0.017853	0.062561	-0.005035	0.054626	0.040283	0.00412	-0.27496	0.006561	0.46493	0.036926	-0.005035	0.023956	0.26337	0.69656	0.11765	-0.32044	-0.048981	0.080566	-0.095978	-0.13351	0.002594	-0.032349	-0.029297	0.6189	-0.5455	-0.002289	-0.014496
